<?xml version="1.0" encoding="utf-8"?>
<!-- Svg Vector Icons : http://www.onlinewebfonts.com/icon -->
<!DOCTYPE svg PUBLIC "-//W3C//DTD SVG 1.1//EN" "http://www.w3.org/Graphics/SVG/1.1/DTD/svg11.dtd">
<svg version="1.1" xmlns="http://www.w3.org/2000/svg" xmlns:xlink="http://www.w3.org/1999/xlink" x="0px" y="0px" viewBox="0 0 256 256" enable-background="new 0 0 256 256" xml:space="preserve">
<metadata> Svg Vector Icons : http://www.onlinewebfonts.com/icon </metadata>
<g><g><path fill="#000000" d="M231.2,187h-14.8V76.4L187,105.8V187H83.7L225.4,33.6L215,23.2L69,179.6V69h73.7l28.5-29.5H69V24.8C69,16.6,62.4,10,54.2,10c-8.1,0-14.8,6.6-14.8,14.8v14.8H24.8c-8.2,0-14.8,6.6-14.8,14.7C10,62.4,16.6,69,24.8,69h14.8v132.7v14.8h14.8H187v14.8c0,8.1,6.6,14.8,14.8,14.8c8.1,0,14.8-6.6,14.8-14.8v-14.8h14.8c8.1,0,14.8-6.6,14.8-14.8C246,193.6,239.4,187,231.2,187z"/></g></g>
</svg>